<svg xmlns="http://www.w3.org/2000/svg" width="38.202" height="38.202" viewBox="0 0 38.202 38.202">
  <g id="google-search-logo" transform="translate(0 0)">
    <path id="Path_1645" data-name="Path 1645" d="M8.466,151.037,7.137,156l-4.86.1a19.134,19.134,0,0,1-.141-17.836h0l4.327.793,1.9,4.3a11.4,11.4,0,0,0,.107,7.675Z" transform="translate(0 -127.951)" fill="#fbbb00"/>
    <path id="Path_1646" data-name="Path 1646" d="M279.975,208.176a19.093,19.093,0,0,1-6.809,18.464h0l-5.45-.278-.771-4.815a11.384,11.384,0,0,0,4.9-5.813H261.628v-7.556h18.347Z" transform="translate(-242.107 -192.644)" fill="#518ef8"/>
    <path id="Path_1647" data-name="Path 1647" d="M59.29,320.318h0a19.107,19.107,0,0,1-28.782-5.844l6.19-5.067a11.36,11.36,0,0,0,16.37,5.816Z" transform="translate(-28.233 -286.323)" fill="#28b446"/>
    <path id="Path_1648" data-name="Path 1648" d="M57.781,4.4,51.593,9.463a11.358,11.358,0,0,0-16.746,5.948l-6.222-5.094h0A19.1,19.1,0,0,1,57.781,4.4Z" transform="translate(-26.488)" fill="#f14336"/>
  </g>
</svg>
