<svg xmlns="http://www.w3.org/2000/svg" width="159.687" height="159.685" viewBox="0 0 159.687 159.685">
  <g id="process4" transform="translate(-5.458 -5.79)">
    <g id="process4-2" data-name="process4" transform="translate(-0.373 -0.044)">
      <path id="Path_1676" data-name="Path 1676" d="M763.253,325.452a79.843,79.843,0,1,1-79.842-79.841A79.843,79.843,0,0,1,763.253,325.452Z" transform="translate(-597.734 -239.777)" fill="#ff3838"/>
      <circle id="Ellipse_4" data-name="Ellipse 4" cx="65.573" cy="65.573" r="65.573" transform="matrix(1, 0.009, -0.009, 1, 20.677, 19.533)" fill="#fff"/>
    </g>
    <g id="process4-3" data-name="process4" transform="translate(62.627 42.956)">
      <path id="Path_1629" data-name="Path 1629" d="M170.2,98.558a1.588,1.588,0,0,0,.044,1.612L185.88,125.1v7.948a1.588,1.588,0,0,0,.822,1.391l10.586,5.825a1.588,1.588,0,0,0,2.354-1.391V125.1l15.637-24.928a1.588,1.588,0,0,0-1.345-2.432h-8.416a6.524,6.524,0,0,0-12.781,0H171.588a1.588,1.588,0,0,0-1.389.819Zm28.929-2.852a3.353,3.353,0,0,1,3.078,2.033H196.05a3.352,3.352,0,0,1,3.078-2.033Zm11.936,5.209L196.71,123.8a1.588,1.588,0,0,0-.243.844v11.544l-7.41-4.078v-7.466a1.588,1.588,0,0,0-.243-.844L174.46,100.914Z" transform="translate(-170 -70.319)" fill="#ff3838"/>
      <path id="Path_1630" data-name="Path 1630" d="M256.813,21.656a6.524,6.524,0,1,0-6.524-6.524A6.524,6.524,0,0,0,256.813,21.656Zm0-9.872a3.348,3.348,0,1,1-3.348,3.348,3.348,3.348,0,0,1,3.348-3.348Z" transform="translate(-229.04 -8.608)" fill="#ff3838"/>
      <path id="Path_1631" data-name="Path 1631" d="M203.181,52.43a6.524,6.524,0,1,0-6.524,6.524A6.524,6.524,0,0,0,203.181,52.43Zm-9.872,0a3.348,3.348,0,1,1,3.348,3.348,3.348,3.348,0,0,1-3.348-3.348Z" transform="translate(-184.805 -36.035)" fill="#ff3838"/>
      <path id="Path_1634" data-name="Path 1634" d="M237.17,277.977a6.881,6.881,0,1,0,6.881,6.881A6.881,6.881,0,0,0,237.17,277.977Zm0,10.586a3.705,3.705,0,1,1,3.705-3.705A3.705,3.705,0,0,1,237.17,288.563Z" transform="translate(-214.333 -206.686)" fill="#ff3838"/>
    </g>
  </g>
</svg>
