<svg xmlns="http://www.w3.org/2000/svg" width="159.711" height="159.711" viewBox="0 0 159.711 159.711">
  <g id="process1" transform="translate(-0.194 -19.719)">
    <g id="Group_1288" data-name="Group 1288" transform="translate(0.194 19.719)">
      <path id="Path_1674" data-name="Path 1674" d="M364.507,473.768a79.842,79.842,0,1,1-29.134-109.091A79.842,79.842,0,0,1,364.507,473.768Z" transform="translate(-215.54 -353.934)" fill="#098a9f"/>
      <circle id="Ellipse_3" data-name="Ellipse 3" cx="65.573" cy="65.573" r="65.573" transform="translate(14.282 14.282)" fill="#fff"/>
    </g>
    <g id="process1-2" data-name="process1" transform="translate(41.194 74.719)">
      <path id="Path_1620" data-name="Path 1620" d="M229.291,38.439V34.367a9.378,9.378,0,1,0-18.757,0v4.071a9.378,9.378,0,1,0,18.757,0Zm-16.286,0V34.367a6.907,6.907,0,1,1,13.815,0v4.071a6.907,6.907,0,1,1-13.815,0Z" transform="translate(-181.596 -24.989)" fill="#098a9f"/>
      <path id="Path_1621" data-name="Path 1621" d="M93.2,163.542h30.234a1.235,1.235,0,0,0,1.236-1.235v-2.836h20.7a1.236,1.236,0,0,0,1.236-1.236v-8.019a9.261,9.261,0,0,0-8.671-9.237,1.442,1.442,0,0,0-1.272.7,5.67,5.67,0,0,1-8.946-.218,1.236,1.236,0,0,0-1.024-.5,9.159,9.159,0,0,0-4.545,1.326,10.386,10.386,0,0,0-7.248-3.6,1.5,1.5,0,0,0-1.274.741,6.653,6.653,0,0,1-10.5-.256,1.232,1.232,0,0,0-1.024-.5,10.34,10.34,0,0,0-7.175,3.13c-.156.16-.3.325-.448.493a9.187,9.187,0,0,0-4.213-1.322,1.445,1.445,0,0,0-1.272.7,5.67,5.67,0,0,1-8.945-.219,1.239,1.239,0,0,0-1.024-.5A9.257,9.257,0,0,0,70,150.216v8.019a1.236,1.236,0,0,0,1.236,1.236h20.73v2.836A1.235,1.235,0,0,0,93.2,163.542Zm32.961-20.069a8.142,8.142,0,0,0,12.19.032,6.793,6.793,0,0,1,5.779,6.71V157H124.67v-7.926a10.337,10.337,0,0,0-1.142-4.731A6.679,6.679,0,0,1,126.161,143.474Zm-24.594-2.287a9.125,9.125,0,0,0,13.783.033,7.936,7.936,0,0,1,6.849,7.854v12H94.436v-12A7.982,7.982,0,0,1,101.568,141.187ZM72.471,157v-6.784a6.832,6.832,0,0,1,6.024-6.741,8.142,8.142,0,0,0,12.189.031,6.741,6.741,0,0,1,2.411.851,10.352,10.352,0,0,0-1.13,4.717V157Z" transform="translate(-70 -115.267)" fill="#098a9f"/>
      <path id="Path_1622" data-name="Path 1622" d="M347.856,62.187V58.623a8.363,8.363,0,0,0-16.726,0v3.564a8.363,8.363,0,1,0,16.726,0Zm-14.255,0V58.623a5.892,5.892,0,1,1,11.783,0v3.564a5.892,5.892,0,1,1-11.783,0Z" transform="translate(-277.358 -45.056)" fill="#098a9f"/>
      <path id="Path_1623" data-name="Path 1623" d="M116.372,62.187V58.623a8.363,8.363,0,1,0-16.726,0v3.564a8.363,8.363,0,1,0,16.726,0Zm-14.255,0V58.623a5.892,5.892,0,0,1,11.784,0v3.564a5.892,5.892,0,1,1-11.784,0Z" transform="translate(-93.541 -45.056)" fill="#098a9f"/>
    </g>
  </g>
</svg>
