<svg xmlns="http://www.w3.org/2000/svg" width="159.718" height="159.715" viewBox="0 0 159.718 159.715">
  <g id="process2" transform="translate(0.112 -0.38)">
    <g id="Group_1286" data-name="Group 1286" transform="translate(-0.112 0.38)">
      <path id="Path_1672" data-name="Path 1672" d="M511.658,403.554a79.842,79.842,0,1,1-95.02-60.995A79.837,79.837,0,0,1,511.658,403.554Z" transform="translate(-353.791 -340.709)" fill="#27b737"/>
      <circle id="Ellipse_2" data-name="Ellipse 2" cx="65.573" cy="65.573" r="65.573" transform="matrix(0.16, -0.987, 0.987, 0.16, 4.629, 134.08)" fill="#fff"/>
    </g>
    <g id="process2-2" data-name="process2" transform="translate(44.888 47.38)">
      <path id="Path_1624" data-name="Path 1624" d="M136.757,319.27a6.609,6.609,0,1,0-6.609,6.609A6.609,6.609,0,0,0,136.757,319.27Zm-10.874,0a4.265,4.265,0,1,1,4.265,4.265A4.265,4.265,0,0,1,125.883,319.27Zm0,0" transform="translate(-102.853 -260.307)" fill="#27b737"/>
      <path id="Path_1625" data-name="Path 1625" d="M276.308,325.879a6.609,6.609,0,1,0-6.609-6.609A6.608,6.608,0,0,0,276.308,325.879Zm0-10.874a4.265,4.265,0,1,1-4.265,4.265A4.265,4.265,0,0,1,276.308,315Zm0,0" transform="translate(-224.54 -260.307)" fill="#27b737"/>
      <path id="Path_1626" data-name="Path 1626" d="M1.171,2.344h7.15a4.754,4.754,0,0,1,4.717,4.03L18.7,42.125a7.087,7.087,0,0,0,7.033,6.007H60.715a1.172,1.172,0,1,0,0-2.344H25.731a4.755,4.755,0,0,1-4.717-4.03l-.962-6.078h35.83a7.124,7.124,0,0,0,6.728-4.789l6.647-19.185a1.172,1.172,0,0,0-1.107-1.557H16.009l-.655-4.142A7.087,7.087,0,0,0,8.321,0H1.171a1.172,1.172,0,1,0,0,2.344ZM66.5,12.494,60.394,30.123a4.779,4.779,0,0,1-4.513,3.212H19.68l-3.3-20.842Zm0,0" transform="translate(0.001 0)" fill="#27b737"/>
    </g>
  </g>
</svg>
