<svg xmlns="http://www.w3.org/2000/svg" width="159.727" height="159.726" viewBox="0 0 159.727 159.726">
  <g id="process5" transform="translate(-7.126 -0.153)">
    <g id="Group_1292" data-name="Group 1292" transform="translate(7.126 0.153)">
      <path id="Path_1678" data-name="Path 1678" d="M701.586,252.339a79.843,79.843,0,1,1,99.208,53.918A79.843,79.843,0,0,1,701.586,252.339Z" transform="translate(-698.286 -149.831)" fill="#a638f6"/>
      <circle id="Ellipse_5" data-name="Ellipse 5" cx="65.573" cy="65.573" r="65.573" transform="matrix(0.23, -0.973, 0.973, 0.23, 0.978, 128.616)" fill="#fff"/>
    </g>
    <g id="promotion" transform="translate(49.126 54.153)">
      <path id="Path_1635" data-name="Path 1635" d="M29.034,131.517c.16,0,.32,0,.481,0v17.74a.993.993,0,0,0,.993.993,9.424,9.424,0,0,0,9.413-9.413v-8.164a52.247,52.247,0,0,1,11.165,3.733l20.894,9.751a.993.993,0,0,0,1.412-.9V131.437a9.411,9.411,0,0,0,0-18.667V98.947a.993.993,0,0,0-1.412-.9L51.086,107.8a52.493,52.493,0,0,1-22.052,4.892,5.209,5.209,0,0,0-5.2,5.2v8.42A5.209,5.209,0,0,0,29.034,131.517ZM79.616,122.1a7.439,7.439,0,0,1-6.224,7.33V114.774A7.439,7.439,0,0,1,79.616,122.1ZM37.935,140.839A7.439,7.439,0,0,1,31.5,148.2V131.577a52.29,52.29,0,0,1,6.435.713ZM71.406,143.7l-4.96-2.316V102.821l4.961-2.316ZM51.925,109.6l12.536-5.85v36.712l-12.536-5.85a54.271,54.271,0,0,0-12-3.963V113.56A54.274,54.274,0,0,0,51.925,109.6Zm-26.108,8.3a3.221,3.221,0,0,1,3.218-3.218,53.954,53.954,0,0,0,8.9-.745v16.347a53.949,53.949,0,0,0-8.9-.745,3.221,3.221,0,0,1-3.218-3.22Z" transform="translate(-23.831 -97.954)" fill="#a638f6"/>
      <path id="Path_1636" data-name="Path 1636" d="M362.728,176.535a.993.993,0,1,0,.777,1.827,17.508,17.508,0,0,0,0-32.218.993.993,0,0,0-.777,1.827,15.522,15.522,0,0,1,0,28.564Z" transform="translate(-306.153 -138.104)" fill="#a638f6"/>
      <path id="Path_1637" data-name="Path 1637" d="M385.015,98.032a.993.993,0,0,0-.778,1.827,24.174,24.174,0,0,1,0,44.485.993.993,0,0,0,.778,1.827,26.159,26.159,0,0,0,0-48.139Z" transform="translate(-324.103 -97.952)" fill="#a638f6"/>
    </g>
  </g>
</svg>
