<svg xmlns="http://www.w3.org/2000/svg" width="159.687" height="159.683" viewBox="0 0 159.687 159.683">
  <g id="process3" transform="translate(0.252 -0.02)">
    <g id="Group_1284" data-name="Group 1284" transform="translate(-0.252 0.02)">
      <path id="Path_1669" data-name="Path 1669" d="M499.011,347.218a79.832,79.832,0,1,1,26.247,109.8A79.834,79.834,0,0,1,499.011,347.218Z" transform="translate(-487.193 -309.155)" fill="#0f7dff"/>
      <path id="Path_1670" data-name="Path 1670" d="M504.446,347.965A65.573,65.573,0,1,1,526,438.157,65.573,65.573,0,0,1,504.446,347.965Z" transform="translate(-480.477 -302.438)" fill="#fff"/>
    </g>
    <g id="process3-2" data-name="process3" transform="translate(45.748 46.02)">
      <path id="Path_1627" data-name="Path 1627" d="M20.954,65.075a7.8,7.8,0,0,0,11.027,0L67.008,30.047a1.2,1.2,0,0,0,.351-.852l-.14-27.864A1.2,1.2,0,0,0,66.028.141L38.164,0a1.171,1.171,0,0,0-.852.351L2.285,35.378a7.8,7.8,0,0,0,0,11.027Zm-16.976-28L38.652,2.4l26.18.132.132,26.18L30.29,63.382a5.4,5.4,0,0,1-7.642,0L3.979,44.713a5.4,5.4,0,0,1,0-7.642Zm0,0" transform="translate(-0.001 0)" fill="#0f7dff"/>
      <path id="Path_1628" data-name="Path 1628" d="M240.867,85.306a7.794,7.794,0,1,0-5.514-2.281,7.795,7.795,0,0,0,5.514,2.281Zm-3.821-11.615a5.387,5.387,0,1,1-1.589,3.821,5.4,5.4,0,0,1,1.589-3.821Zm0,0" transform="translate(-193.223 -57.799)" fill="#0f7dff"/>
    </g>
  </g>
</svg>
