<svg id="checked_1_" data-name="checked(1)" xmlns="http://www.w3.org/2000/svg" width="507.2" height="507.2" viewBox="0 0 507.2 507.2">
  <circle id="Ellipse_2" data-name="Ellipse 2" cx="253.6" cy="253.6" r="253.6" transform="translate(0 0)" fill="#ff9d3b"/>
  <path id="Path_1" data-name="Path 1" d="M188.8,368,319.2,498.4c108-28.8,188-127.2,188-244.8v-7.2L404.8,152Z" fill="#ff8307"/>
  <g id="Group_5" data-name="Group 5">
    <path id="Path_2" data-name="Path 2" d="M260,310.4c11.2,11.2,11.2,30.4,0,41.6l-23.2,23.2c-11.2,11.2-30.4,11.2-41.6,0L93.6,272.8c-11.2-11.2-11.2-30.4,0-41.6L116.8,208c11.2-11.2,30.4-11.2,41.6,0Z" fill="#fff"/>
    <path id="Path_3" data-name="Path 3" d="M348.8,133.6c11.2-11.2,30.4-11.2,41.6,0l23.2,23.2c11.2,11.2,11.2,30.4,0,41.6l-176,175.2c-11.2,11.2-30.4,11.2-41.6,0l-23.2-23.2c-11.2-11.2-11.2-30.4,0-41.6Z" fill="#fff"/>
  </g>
</svg>
