<svg xmlns="http://www.w3.org/2000/svg" width="1921" height="1305.938" viewBox="0 0 1921 1305.938">
  <path id="top-banner-bg-img" d="M1328.846,1652.655c-31.449,0-63.646-.885-95.7-2.629-32.471-1.766-65.716-4.464-98.811-8.018-37.739-4.055-77.956-9.985-119.534-17.627-40.625-7.466-83.519-16.742-127.488-27.572-43.033-10.6-88.051-22.922-133.8-36.623-44.874-13.438-91.467-28.5-138.486-44.778-92.036-31.858-187.745-69.017-284.469-110.444C235.984,1364.458,140.582,1319.936,47,1272.636V348.874l1921-2.158V1508.571c-2.595,1.316-5.156,2.6-7.612,3.827-17.73,8.837-35.986,17.391-54.261,25.424-18.431,8.1-37.365,15.883-56.278,23.132-19.077,7.313-38.685,14.3-58.279,20.752-19.764,6.511-40.04,12.661-60.265,18.278-20.412,5.669-41.351,10.956-62.235,15.715-21.057,4.8-42.654,9.192-64.191,13.062-21.739,3.9-43.99,7.375-66.134,10.316-22.363,2.972-45.261,5.49-68.059,7.482-23.007,2.011-46.549,3.544-69.971,4.556C1377.069,1652.136,1352.889,1652.654,1328.846,1652.655Z" transform="translate(-47 -346.716)" fill="#f5f5f5"/>
</svg>
